<svg width="142" height="24" viewBox="0 0 142 24" fill="none" xmlns="http://www.w3.org/2000/svg">
<path fill-rule="evenodd" clip-rule="evenodd" d="M1.09393 0C0.409224 0 -0.107078 0.620524 0.0190455 1.29186L0.0827982 1.6312C0.179742 2.14721 0.631389 2.52116 1.15768 2.52116H6.16187L6.50154 5.38167H2.52157C1.85763 5.38167 1.34687 5.96703 1.43842 6.62301L3.60014 22.1114L3.6004 22.1134C3.66833 22.6358 3.92796 23.1147 4.32891 23.4613C4.73019 23.8082 5.24568 23.9992 5.77871 24H14.2382C14.7712 23.9993 15.2868 23.8083 15.6881 23.4614C16.0889 23.1149 16.3485 22.6363 16.4166 22.1142L18.6553 6.62828C18.7503 5.97063 18.2389 5.38167 17.5729 5.38167H12.64C11.9839 5.38167 11.4754 5.95409 11.5544 6.6039L11.5957 6.94324C11.6622 7.49093 12.1282 7.90283 12.6813 7.90283H15.5117C15.7313 7.90283 15.901 8.09509 15.8733 8.3124L15.5604 10.7633H9.71901L9.37933 7.90283H9.38557L9.11811 5.70252L8.5552 0.96257C8.49 0.413561 8.02341 0 7.4692 0H1.09393ZM10.0334 13.2845H15.226L14.1216 20.2515C14.0096 20.9583 13.3987 21.4788 12.6814 21.4788H7.35031C6.62803 21.4788 6.0146 20.9514 5.90812 20.2387L4.86897 13.2845H7.44749L8.1109 17.9417L10.7985 18.2159L10.0334 13.2845ZM7.1406 10.7633H4.53814L4.22527 8.3124C4.19753 8.09509 4.36728 7.90283 4.58688 7.90283H6.80093L7.1406 10.7633Z" fill="#D0FE42"/>
<path d="M22.7029 24C21.8436 24 21.1466 23.3041 21.1453 22.4448L21.1226 7.99998H28.0346C29.5226 7.99998 30.7946 8.23998 31.8506 8.71998C32.9226 9.19998 33.7466 9.88798 34.3226 10.784C34.8986 11.68 35.1866 12.744 35.1866 13.976C35.1866 15.208 34.8986 16.272 34.3226 17.168C33.7466 18.064 32.9226 18.752 31.8506 19.232C30.7946 19.712 29.5226 19.952 28.0346 19.952H22.8506L24.2426 18.488L24.2606 22.4352C24.2645 23.2983 23.566 24 22.7029 24V24ZM24.2426 18.824L22.8506 17.312H27.8906C29.2666 17.312 30.2986 17.024 30.9866 16.448C31.6906 15.856 32.0426 15.032 32.0426 13.976C32.0426 12.904 31.6906 12.08 30.9866 11.504C30.2986 10.928 29.2666 10.64 27.8906 10.64H22.8506L24.2426 9.10398V18.824Z" fill="white"/>
<path d="M45.0563 24V21.24L44.8883 20.688V16.152C44.8883 15.272 44.6243 14.592 44.0963 14.112C43.5683 13.616 42.7683 13.368 41.6963 13.368C40.9763 13.368 40.2643 13.48 39.5603 13.704C38.8723 13.928 38.2883 14.24 37.8083 14.64L36.6323 12.456C37.3203 11.928 38.1363 11.536 39.0803 11.28C40.0403 11.008 41.0323 10.872 42.0563 10.872C43.9123 10.872 45.3443 11.32 46.3523 12.216C47.3763 13.096 47.8883 14.464 47.8883 16.32V24H45.0563ZM41.0243 24C40.0643 24 39.2243 23.84 38.5043 23.52C37.7843 23.184 37.2243 22.728 36.8243 22.152C36.4403 21.56 36.2483 20.896 36.2483 20.16C36.2483 19.44 36.4163 18.792 36.7523 18.216C37.1043 17.64 37.6723 17.184 38.4563 16.848C39.2403 16.512 40.2803 16.344 41.5763 16.344H45.2963V18.336H41.7923C40.7683 18.336 40.0803 18.504 39.7283 18.84C39.3763 19.16 39.2003 19.56 39.2003 20.04C39.2003 20.584 39.4163 21.016 39.8483 21.336C40.2803 21.656 40.8803 21.816 41.6483 21.816C42.3843 21.816 43.0403 21.648 43.6163 21.312C44.2083 20.976 44.6323 20.48 44.8883 19.824L45.3923 21.624C45.1043 22.376 44.5843 22.96 43.8323 23.376C43.0963 23.792 42.1603 24 41.0243 24Z" fill="white"/>
<path d="M50.6665 23.976V11.16H53.5225V14.688L53.1865 13.656C53.5705 12.792 54.1705 12.136 54.9865 11.688C55.5297 11.3955 56.1125 11.1985 56.7946 11.0969C57.4072 11.0058 57.8806 11.5733 57.7766 12.1839L57.5487 13.5218C57.5157 13.7155 57.324 13.8327 57.1276 13.8327V13.8327C57.0156 13.8167 56.9036 13.8087 56.7916 13.8087C55.6556 13.8087 55.3465 14.136 54.6745 14.808C54.0025 15.464 53.6665 16.448 53.6665 17.76V23.976H50.6665Z" fill="white"/>
<path d="M70.0543 24V11.184H73.0543V24H70.0543ZM71.5663 9.07198C71.0063 9.07198 70.5423 8.89598 70.1743 8.54398C69.8223 8.19198 69.6463 7.76798 69.6463 7.27198C69.6463 6.75998 69.8223 6.33598 70.1743 5.99998C70.5423 5.64798 71.0063 5.47198 71.5663 5.47198C72.1263 5.47198 72.5823 5.63998 72.9343 5.97598C73.3023 6.29598 73.4863 6.70398 73.4863 7.19998C73.4863 7.72798 73.3103 8.17598 72.9583 8.54398C72.6063 8.89598 72.1423 9.07198 71.5663 9.07198Z" fill="white"/>
<path d="M81.6538 24C80.5658 24 79.6058 23.8 78.7738 23.4C77.9418 22.984 77.2938 22.36 76.8298 21.528C76.3658 20.68 76.1339 19.616 76.1339 18.336V11.016H79.1339V17.928C79.1339 19.08 79.3898 19.944 79.9018 20.52C80.4298 21.08 81.1738 21.36 82.1338 21.36C82.8378 21.36 83.4458 21.216 83.9578 20.928C84.4858 20.64 84.8938 20.208 85.1818 19.632C85.4858 19.056 85.6378 18.344 85.6378 17.496V11.016H88.6378V24H85.7818V20.376L86.2858 21.432C85.8538 22.264 85.2218 22.904 84.3898 23.352C83.5578 23.784 82.6458 24 81.6538 24Z" fill="white"/>
<path d="M93.6519 24C92.7903 24 92.0919 23.3015 92.0919 22.44V8.01293H99.0039C100.492 8.01293 101.764 8.21484 102.82 8.69484C103.892 9.17484 104.716 9.86284 105.292 10.7588C105.868 11.6548 106.156 12.7188 106.156 13.9508C106.156 15.1828 105.868 16.2468 105.292 17.1428C104.716 18.0228 103.892 18.7028 102.82 19.1828C101.764 19.6468 100.492 19.8788 99.0039 19.8788H93.8199L95.2119 18.4628V22.44C95.2119 23.3015 94.5134 24 93.6519 24V24ZM103.714 24C103.316 24 102.939 23.8188 102.691 23.5076L98.8359 18.6788H102.172L104.735 21.8712C105.423 22.728 104.813 24 103.714 24V24ZM95.2119 18.7988L93.8199 17.3108H98.8599C100.236 17.3108 101.268 17.0148 101.956 16.4228C102.66 15.8308 103.012 15.0068 103.012 13.9508C103.012 12.8788 102.66 12.0548 101.956 11.4788C101.268 10.9028 100.236 10.6148 98.8599 10.6148H93.8199L95.2119 9.07884V18.7988Z" fill="white"/>
<path d="M114.435 24C113.123 24 111.955 23.72 110.931 23.16C109.907 22.584 109.099 21.8 108.507 20.808C107.915 19.816 107.619 18.688 107.619 17.424C107.619 16.144 107.915 15.016 108.507 14.04C109.099 13.048 109.907 12.272 110.931 11.712C111.955 11.152 113.123 10.872 114.435 10.872C115.763 10.872 116.939 11.152 117.963 11.712C119.003 12.272 119.811 13.04 120.387 14.016C120.979 14.992 121.275 16.128 121.275 17.424C121.275 18.688 120.979 19.816 120.387 20.808C119.811 21.8 119.003 22.584 117.963 23.16C116.939 23.72 115.763 24 114.435 24ZM114.435 21.432C115.171 21.432 115.827 21.272 116.403 20.952C116.979 20.632 117.427 20.168 117.747 19.56C118.083 18.952 118.251 18.24 118.251 17.424C118.251 16.592 118.083 15.88 117.747 15.288C117.427 14.68 116.979 14.216 116.403 13.896C115.827 13.576 115.179 13.416 114.459 13.416C113.723 13.416 113.067 13.576 112.491 13.896C111.931 14.216 111.483 14.68 111.147 15.288C110.811 15.88 110.643 16.592 110.643 17.424C110.643 18.24 110.811 18.952 111.147 19.56C111.483 20.168 111.931 20.632 112.491 20.952C113.067 21.272 113.715 21.432 114.435 21.432Z" fill="white"/>
<path d="M123.303 24V8.01293H126.303V24H123.303Z" fill="white"/>
<path d="M65.4683 24C64.0603 24 62.9723 23.64 62.2043 22.92C61.4363 22.184 61.0523 21.104 61.0523 19.68V14.8446C61.0523 14.2761 60.5789 13.8219 60.0108 13.8455L59.8129 13.8537C59.1788 13.88 58.6809 13.3166 58.785 12.6906L58.9084 11.948C58.9886 11.4656 59.4059 11.112 59.8949 11.112H61.0523V7.99998H64.0523V11.112H68.3483V12.6829C68.3483 13.2352 67.9006 13.6829 67.3483 13.6829H65.0523C64.5 13.6829 64.0523 14.1306 64.0523 14.6829V19.608C64.0523 20.216 64.2043 20.688 64.5083 21.024C64.8283 21.36 65.2683 21.528 65.8283 21.528C66.5003 21.528 67.0603 21.352 67.5083 21L68.3483 23.136C67.9963 23.424 67.5643 23.64 67.0523 23.784C66.5403 23.928 66.0123 24 65.4683 24Z" fill="white"/>
<path fill-rule="evenodd" clip-rule="evenodd" d="M135.5 24C134.076 24 132.828 23.72 131.756 23.16C130.7 22.584 129.876 21.8 129.284 20.808C128.708 19.816 128.42 18.688 128.42 17.424C128.42 16.144 128.7 15.016 129.26 14.04C129.836 13.048 130.62 12.272 131.612 11.712C132.62 11.152 133.764 10.872 135.044 10.872C136.292 10.872 137.404 11.144 138.38 11.688C139.356 12.232 140.124 13 140.684 13.992C141.244 14.984 141.714 16.392 141.476 18.384H131.42C131.502 18.8269 131.654 19.2349 131.876 19.608C132.228 20.2 132.724 20.656 133.364 20.976C134.004 21.296 134.74 21.456 135.572 21.456C136.292 21.456 136.94 21.344 137.516 21.12C138.092 20.896 138.604 20.544 139.052 20.064L140.66 21.912C140.084 22.584 139.356 23.104 138.476 23.472C137.612 23.824 136.62 24 135.5 24ZM136.94 13.752C137.5 14.072 137.94 14.512 138.26 15.072C138.486 15.468 138.628 15.908 138.686 16.392H131.393C131.459 15.9113 131.596 15.4793 131.804 15.096C132.124 14.52 132.556 14.072 133.1 13.752C133.66 13.432 134.308 13.272 135.044 13.272C135.764 13.272 136.396 13.432 136.94 13.752Z" fill="white"/>
<path d="M132.176 8.62131C131.511 8.62131 131.174 7.82078 131.639 7.34542L132.651 6.31129C133.262 5.68585 134.1 5.33331 134.975 5.33331V5.33331C135.85 5.33331 136.688 5.68585 137.3 6.31128L138.311 7.34542C138.776 7.82078 138.439 8.62131 137.774 8.62131V8.62131C137.331 8.62131 136.901 8.46409 136.562 8.17755L134.975 6.83543L133.388 8.17755C133.049 8.46409 132.62 8.62131 132.176 8.62131V8.62131Z" fill="white"/>
</svg>
