<?xml version="1.0" encoding="UTF-8"?>
<svg version="1.1" xmlns="http://www.w3.org/2000/svg" width="2766" height="480">
<path d="M0 0 C0.72444305 0.00054382 1.44888611 0.00108765 2.19528198 0.00164795 C36.32782232 0.11913084 66.02154315 12.47092033 90.30859375 36.67578125 C109.95468605 57.4795289 119.51163124 85.42968103 123 113.375 C123.09498779 114.11266602 123.18997559 114.85033203 123.2878418 115.61035156 C127.88591937 155.48488032 121.76857415 200.16865343 96.40234375 232.47265625 C80.34907923 251.86708802 61.39921946 265.37836333 37 272.375 C36.29053223 272.58527832 35.58106445 272.79555664 34.85009766 273.01220703 C6.09813007 281.16709925 -26.33492332 278.18586855 -52.6875 264.5 C-57.86807523 261.59619054 -62.44754872 258.17281071 -67 254.375 C-67.95777344 253.6221875 -68.91554688 252.869375 -69.90234375 252.09375 C-73.32468231 249.23397285 -76.02112016 245.94875952 -78.75 242.4375 C-79.23082031 241.84259766 -79.71164063 241.24769531 -80.20703125 240.63476562 C-83.03830999 237.02665971 -84.81582138 233.88451743 -86 229.375 C-86.66 229.375 -87.32 229.375 -88 229.375 C-88 276.565 -88 323.755 -88 372.375 C-116.05 372.375 -144.1 372.375 -173 372.375 C-173 250.605 -173 128.835 -173 3.375 C-145.61 3.375 -118.22 3.375 -90 3.375 C-90 18.225 -90 33.075 -90 48.375 C-88.68 48.375 -87.36 48.375 -86 48.375 C-85.73316406 47.64667969 -85.46632813 46.91835937 -85.19140625 46.16796875 C-77.87264101 29.01086335 -60.77922151 14.44995507 -43.79882812 7.47021484 C-41.50413518 6.60111707 -39.19950407 5.78574439 -36.875 5 C-36.17197754 4.76144287 -35.46895508 4.52288574 -34.74462891 4.27709961 C-23.34074493 0.6559673 -11.88897586 -0.03367163 0 0 Z M-73.8125 80.5 C-90.31494863 101.96514151 -92.67763774 131.24383587 -89.50390625 157.30859375 C-86.39430624 177.255426 -76.7991324 195.72712913 -60.453125 207.84375 C-45.83789461 216.96663267 -27.50175838 218.90477444 -10.73828125 215.6875 C5.3559875 211.43818812 17.63099527 201.23582254 26.02734375 187.05078125 C39.32659524 163.15260181 39.60354076 132.71566862 33.3125 106.6875 C28.09988538 88.61582503 18.29628417 74.75415636 2 65.375 C-23.56616935 52.91060719 -55.18665932 59.32137912 -73.8125 80.5 Z " fill="#FFFFFF" transform="translate(173,107.625)"/>
<path d="M0 0 C1.37112946 -0.00855011 1.37112946 -0.00855011 2.7699585 -0.01727295 C4.69949204 -0.0266677 6.62904123 -0.03323477 8.55859375 -0.03710938 C11.43520202 -0.04671087 14.31106195 -0.07774407 17.1875 -0.109375 C54.41390589 -0.3228184 93.44975888 9.06597449 121.421875 34.890625 C138.41861888 52.70179619 142.7244522 74.78756023 142.57495117 98.50927734 C142.57410315 100.41279588 142.57458346 102.3163154 142.57627869 104.21983337 C142.57713322 109.34496176 142.55959599 114.46987599 142.53855681 119.59495497 C142.51969889 124.96674458 142.51803243 130.33854006 142.51448059 135.71035767 C142.50518676 145.86369618 142.48060927 156.01693683 142.45043212 166.17023242 C142.4168049 177.73743322 142.40038124 189.3046389 142.38534582 200.87187648 C142.35405714 224.64902593 142.29907861 248.42604138 142.234375 272.203125 C115.504375 272.203125 88.774375 272.203125 61.234375 272.203125 C61.234375 259.993125 61.234375 247.783125 61.234375 235.203125 C58.44821709 237.98928291 56.23076947 240.41322026 53.921875 243.515625 C38.67487303 263.19228227 16.55059525 272.47410341 -7.515625 276.453125 C-31.85070229 279.28456481 -56.70766559 277.66106644 -79.765625 269.203125 C-80.84328125 268.81125 -81.9209375 268.419375 -83.03125 268.015625 C-101.6838161 260.74590693 -116.11957369 247.87541373 -125.015625 229.953125 C-133.13965648 211.18530895 -134.00886562 187.44700097 -126.765625 168.203125 C-122.88350568 159.17166606 -117.71976952 152.09773061 -110.765625 145.203125 C-110.1365625 144.52894531 -109.5075 143.85476562 -108.859375 143.16015625 C-85.73402609 120.17245822 -46.35519823 116.2216589 -15.765625 113.203125 C-14.20425256 113.04845857 -12.64289253 112.89366673 -11.08154297 112.73876953 C-10.26027924 112.65732193 -9.4390155 112.57587433 -8.59286499 112.49195862 C-5.151275 112.14957077 -1.7100606 111.80346313 1.73120117 111.45779419 C4.21802469 111.21095169 6.70556633 110.97292564 9.19335938 110.73608398 C17.03067536 109.97264101 24.79952825 109.04744473 32.55859375 107.69140625 C33.24824722 107.57132202 33.9379007 107.45123779 34.64845276 107.32751465 C41.60094817 106.05280887 48.47485008 104.62822519 53.296875 99.140625 C57.1235949 93.33882387 56.75684744 87.38387515 55.609375 80.765625 C53.6917946 73.04203726 49.00826573 66.9733518 42.51171875 62.484375 C27.81555014 54.21620467 7.6045535 53.77869799 -8.515625 57.828125 C-21.70134556 61.68471062 -31.68893088 67.84904932 -38.50390625 79.8359375 C-39.62678947 81.94264719 -40.70261618 84.06583772 -41.765625 86.203125 C-51.03257416 85.57151606 -60.29932656 84.93711178 -69.56584263 84.29918003 C-73.86907981 84.00302103 -78.17237758 83.70780987 -82.47583008 83.41479492 C-86.63217081 83.13176102 -90.78833088 82.84619809 -94.94437981 82.55891228 C-96.52666032 82.44997808 -98.10900288 82.34194122 -99.69140816 82.23483467 C-101.91496923 82.08417392 -104.13828432 81.93026699 -106.36157227 81.77563477 C-107.62510025 81.68903091 -108.88862823 81.60242706 -110.19044495 81.51319885 C-113.74219407 81.20515715 -117.24210358 80.74166622 -120.765625 80.203125 C-113.86947018 53.70737225 -98.26916919 33.24974347 -74.765625 19.203125 C-52.30507069 6.51440202 -25.73954913 0.1286764 0 0 Z M48.89233398 150.72705078 C38.94608042 153.61806962 28.9011516 155.33243469 18.671875 156.828125 C17.9509668 156.93401947 17.23005859 157.03991394 16.48730469 157.14901733 C11.73786531 157.84459854 6.98642016 158.52559828 2.234375 159.203125 C-15.36199292 161.71403204 -33.36738509 164.48698933 -45.32421875 178.99609375 C-49.04857212 184.69869443 -50.50082731 191.46377046 -49.765625 198.203125 C-47.84599216 207.00144218 -43.68856476 213.61111938 -36.078125 218.515625 C-19.57809082 227.66022226 1.43274973 226.95983459 19.234375 222.203125 C27.98568758 219.45463536 35.45814473 215.36452357 42.234375 209.203125 C43.29785156 208.27693359 43.29785156 208.27693359 44.3828125 207.33203125 C51.45723644 200.79673628 56.54358885 192.00343783 57.40921021 182.22889709 C57.46377235 180.10417815 57.45976131 177.98847296 57.4296875 175.86328125 C57.42544266 174.71284584 57.42544266 174.71284584 57.42111206 173.53916931 C57.41000975 171.11448879 57.38492467 168.69019191 57.359375 166.265625 C57.3493323 164.6113335 57.34020872 162.95703615 57.33203125 161.30273438 C57.31010317 157.26938577 57.27564343 153.2363202 57.234375 149.203125 C54.18417666 149.203125 51.79605665 149.86998815 48.89233398 150.72705078 Z " fill="#FFFFFF" transform="translate(449.765625,107.796875)"/>
<path d="M0 0 C0.81052826 -0.00974854 1.62105652 -0.01949707 2.45614624 -0.02954102 C20.37642925 -0.20075459 37.69789561 -0.03303229 55.21484375 4.23828125 C55.98683105 4.4202002 56.75881836 4.60211914 57.55419922 4.78955078 C88.52282725 12.30829558 117.80761576 30.33450158 134.95556641 57.63989258 C153.93403165 89.08377802 155.21484375 120.57573159 155.21484375 157.23828125 C86.57484375 157.23828125 17.93484375 157.23828125 -52.78515625 157.23828125 C-48.33558336 178.82859935 -48.33558336 178.82859935 -37.78515625 197.23828125 C-37.27339844 197.92664063 -36.76164062 198.615 -36.234375 199.32421875 C-26.14034862 211.8995929 -9.40172062 218.25351593 6.21484375 220.23828125 C26.24178203 221.68525375 45.48399989 218.83601625 61.80078125 206.3515625 C67.10734165 201.70617548 70.11162626 196.4968622 73.21484375 190.23828125 C99.22279888 191.4408495 125.22204959 192.74212005 151.21484375 194.23828125 C152.60118329 198.62585043 151.2877297 201.66524442 149.65234375 205.80078125 C149.37567871 206.51314941 149.09901367 207.22551758 148.81396484 207.95947266 C140.81015308 228.09384881 126.70504005 243.95740395 108.21484375 255.23828125 C107.60463379 255.61194824 106.99442383 255.98561523 106.36572266 256.37060547 C87.68814152 267.55235879 66.66782421 273.34336926 45.21484375 276.23828125 C44.12804321 276.39079346 44.12804321 276.39079346 43.01928711 276.54638672 C34.23522309 277.60671161 25.36178318 277.48211341 16.52734375 277.48828125 C15.65968384 277.48895599 14.79202393 277.48963074 13.89807129 277.49032593 C-30.63762899 277.43538795 -71.20236758 265.7296239 -103.3125 233.71875 C-129.04399743 206.63922343 -137.41776043 169.74775053 -136.99609375 133.3515625 C-136.08405649 97.79899883 -123.61935565 65.67543541 -98.78515625 40.23828125 C-98.13160156 39.52285156 -97.47804688 38.80742187 -96.8046875 38.0703125 C-73.08338305 12.73049687 -33.99368623 0.34218014 0 0 Z M-38.75390625 77.359375 C-46.41574014 86.51661068 -51.78515625 98.22683989 -51.78515625 110.23828125 C-10.53515625 110.23828125 30.71484375 110.23828125 73.21484375 110.23828125 C71.41513608 94.04091221 65.70961382 79.11989762 53.00390625 68.3671875 C25.23606022 47.47390529 -15.74148553 52.56623125 -38.75390625 77.359375 Z " fill="#FFFFFF" transform="translate(2416.78515625,107.76171875)"/>
<path d="M0 0 C0.87666321 -0.00626404 1.75332642 -0.01252808 2.65655518 -0.01898193 C44.11307941 -0.20626066 83.53078448 12.32699218 113.875 41.1875 C142.28023328 70.75688219 150.51129294 108.85574605 149.86489868 148.66722107 C149.08771962 183.01119579 135.03174829 214.8144444 110.99609375 239.1640625 C84.24754847 264.31626083 46.77583454 277.41590279 10.26953125 277.640625 C9.49819855 277.64768463 8.72686584 277.65474426 7.93215942 277.66201782 C-33.96215017 277.95817805 -74.91382754 271.20219814 -107.3125 242.4375 C-108.55193359 241.41269531 -108.55193359 241.41269531 -109.81640625 240.3671875 C-128.49618509 224.52299324 -139.75513305 202.20429148 -146.0625 178.875 C-146.26133789 178.14434326 -146.46017578 177.41368652 -146.66503906 176.66088867 C-149.82235542 164.30917466 -150.69026232 151.94132044 -150.625 139.25 C-150.62350952 138.52927307 -150.62201904 137.80854614 -150.6204834 137.065979 C-150.57807506 125.62680502 -149.86527211 114.61247519 -147.3125 103.4375 C-147.04566406 102.17035156 -146.77882813 100.90320313 -146.50390625 99.59765625 C-139.08890173 68.19099266 -118.84544417 40.0486222 -91.546875 22.91796875 C-77.40131042 14.43265272 -62.35751753 8.21139322 -46.3125 4.4375 C-45.44399414 4.22867188 -44.57548828 4.01984375 -43.68066406 3.8046875 C-29.1884777 0.49697288 -14.79694293 0.04940931 0 0 Z M-45.3125 77.4375 C-62.11001204 97.50501951 -65.93761532 125.44801145 -63.8515625 150.796875 C-62.59610939 162.84312544 -59.74379186 174.57491627 -54.3125 185.4375 C-53.80976562 186.44296875 -53.30703125 187.4484375 -52.7890625 188.484375 C-45.0969364 202.71300262 -34.02318972 211.32906667 -18.953125 216.67578125 C-3.19328679 221.22188842 15.04496146 219.52440818 29.5 212.125 C44.95446207 203.26762697 54.44776127 189.09231641 59.35595703 172.12695312 C61.54748419 163.7356425 63.37826717 155.12290908 63.6875 146.4375 C63.72746094 145.33664063 63.76742188 144.23578125 63.80859375 143.1015625 C64.23631979 119.09858356 60.13270178 93.38111749 42.96655273 75.3996582 C29.81517595 62.43322618 14.7732007 59.14457598 -3.01025391 59.12060547 C-19.94337024 59.3270758 -33.51267192 65.13133601 -45.3125 77.4375 Z " fill="#FFFFFF" transform="translate(1972.3125,107.5625)"/>
<path d="M0 0 C28.05 0 56.1 0 85 0 C85.03738281 11.59253906 85.07476563 23.18507812 85.11328125 35.12890625 C85.1435701 42.48894408 85.17460359 49.8489664 85.20898438 57.20898438 C85.26337351 68.88173997 85.31479062 80.55445254 85.34643555 92.22729492 C85.36950128 100.73036504 85.40299411 109.23332126 85.44870156 117.73630089 C85.47251877 122.23325533 85.49132254 126.73009778 85.49761391 131.22711372 C85.5037173 135.47152319 85.52390341 139.71564654 85.55427551 143.95994949 C85.56297245 145.50652125 85.56679594 147.05313054 85.56500816 148.59972572 C85.55215194 164.87305183 87.13834586 180.82494908 98.29296875 193.6328125 C108.81108394 203.76632253 122.49162834 207.92842063 136.9375 208.375 C155.14587402 207.81735339 170.66977869 201.89351481 183.25 188.75 C193.2941046 177.0052004 194.29948344 163.70966096 194.31884766 148.9453125 C194.32815586 147.31853238 194.33832585 145.69175699 194.34928894 144.06498718 C194.37650243 139.66685087 194.39171261 135.26874644 194.40471697 130.87054825 C194.42038548 126.26742157 194.4471638 121.66435962 194.4727478 117.0612793 C194.51946983 108.35278378 194.55624572 99.644276 194.58942068 90.93571949 C194.63484913 79.16212776 194.69569777 67.38861628 194.75566864 55.61509132 C194.84969205 37.07676785 194.92316099 18.53842111 195 0 C223.05 0 251.1 0 280 0 C280 88.77 280 177.54 280 269 C253.27 269 226.54 269 199 269 C199 252.83 199 236.66 199 220 C198.01 220 197.02 220 196 220 C195.74476563 220.87011719 195.48953125 221.74023438 195.2265625 222.63671875 C188.67511924 240.60102656 171.93316457 254.1255709 155.23339844 262.29956055 C139.10646774 269.76067156 122.17759271 272.42449066 104.5 272.375 C103.80023041 272.37478851 103.10046082 272.37457703 102.37948608 272.37435913 C75.12079634 272.29243124 49.44920628 264.58092331 29 246 C28.36835937 245.44957031 27.73671875 244.89914062 27.0859375 244.33203125 C9.24042001 227.83103905 1.15511795 202.53361284 -0.11389971 178.8766911 C-0.28416117 173.47924405 -0.25134224 168.08127266 -0.22705078 162.68188477 C-0.22648518 160.89644375 -0.22680613 159.11100227 -0.22793579 157.32556152 C-0.22850448 152.52697423 -0.21682938 147.72848899 -0.20278788 142.9299252 C-0.19019902 137.89713145 -0.18910364 132.86433478 -0.18673706 127.83152771 C-0.18054608 118.32281772 -0.16416783 108.81415427 -0.14403808 99.30546468 C-0.11740147 86.4410922 -0.10668717 73.5767068 -0.09503365 60.71231365 C-0.07628527 40.47484097 -0.0364238 20.23746647 0 0 Z " fill="#FFFFFF" transform="translate(1198,111)"/>
<path d="M0 0 C28.05 0 56.1 0 85 0 C85 21.12 85 42.24 85 64 C103.81 64 122.62 64 142 64 C142 82.81 142 101.62 142 121 C123.19 121 104.38 121 85 121 C85.06291459 138.72453592 85.13812648 156.44887536 85.23571491 174.17324829 C85.28063623 182.40340899 85.3200593 190.63352678 85.34643555 198.86376953 C85.36944535 206.03918686 85.40287659 213.21446796 85.44870156 220.38977718 C85.4725937 224.18731123 85.49134867 227.98471068 85.49761391 231.78231812 C85.50368302 235.36108296 85.52374811 238.93950362 85.55427551 242.51814079 C85.56718073 244.44886642 85.56549081 246.37967258 85.5632782 248.31044006 C85.64862404 256.23187066 86.14308351 262.42885439 91.25 268.8125 C99.84827766 275.65203905 110.51703728 275.84695442 121.03538513 274.79678345 C123.16382611 274.5421734 125.28904875 274.27002764 127.4140625 273.98828125 C128.14729736 273.89373657 128.88053223 273.79919189 129.63598633 273.70178223 C131.42436916 273.47076456 133.21224064 273.235794 135 273 C136.69761985 280.13594482 138.39283684 287.27245587 140.08496857 294.40970421 C140.87072593 297.72361479 141.65731696 301.03732291 142.44580078 304.35058594 C143.35175269 308.15761893 144.25410111 311.96550143 145.15625 315.7734375 C145.44060913 316.96617279 145.72496826 318.15890808 146.01794434 319.38778687 C146.27821411 320.48877716 146.53848389 321.58976746 146.80664062 322.72412109 C147.03758423 323.69674896 147.26852783 324.66937683 147.50646973 325.67147827 C148 328 148 328 148 330 C111.07815839 340.6964747 67.39947803 341.94610737 32.7734375 323.30859375 C26.69284955 319.77937718 21.84548811 315.03625536 17 310 C16.09701172 309.12601562 16.09701172 309.12601562 15.17578125 308.234375 C2.34083651 294.89411747 -0.64493148 274.87845522 -0.45410156 257.23046875 C-0.45296925 255.73059113 -0.45361441 254.23071131 -0.45587158 252.73083496 C-0.45700471 248.71517996 -0.43372679 244.70001702 -0.40557575 240.68447495 C-0.38032442 236.46716656 -0.37820162 232.24984303 -0.37347412 228.0324707 C-0.36111327 220.071387 -0.32838651 212.11052682 -0.28807616 204.1495409 C-0.243142 195.07561364 -0.22131736 186.00167489 -0.20129442 176.9276638 C-0.15964647 158.28495729 -0.08638196 139.64255661 0 121 C-13.86 121 -27.72 121 -42 121 C-42 102.19 -42 83.38 -42 64 C-28.14 64 -14.28 64 0 64 C0 42.88 0 21.76 0 0 Z " fill="#FFFFFF" transform="translate(886,47)"/>
<path d="M0 0 C28.05 0 56.1 0 85 0 C85 118.14 85 236.28 85 358 C56.95 358 28.9 358 0 358 C0 239.86 0 121.72 0 0 Z " fill="#FFFFFF" transform="translate(2159,22)"/>
<path d="M0 0 C0 22.11 0 44.22 0 67 C-6.93 66.01 -13.86 65.02 -21 64 C-25.50788338 63.72761293 -29.82262435 63.51626476 -34.3125 63.5625 C-35.40933105 63.57152344 -36.50616211 63.58054687 -37.63623047 63.58984375 C-53.89176901 63.9348397 -72.49490601 68.61091393 -84.55859375 80.328125 C-93.0145127 90.13607435 -99.08718023 101.51955065 -99.15821838 114.63116455 C-99.16315636 115.29611773 -99.16809434 115.96107091 -99.17318195 116.64617419 C-99.18853019 118.87251209 -99.19691029 121.09882121 -99.20532227 123.32519531 C-99.21490289 124.92182671 -99.22491309 126.51845557 -99.23532104 128.11508179 C-99.26235615 132.44940127 -99.28337328 136.78373162 -99.30332303 141.11808872 C-99.32519116 145.64781742 -99.35257581 150.17751266 -99.37937927 154.70721436 C-99.42929495 163.28481011 -99.47423797 171.86242446 -99.51740164 180.44005656 C-99.57601562 192.03104428 -99.64229647 203.62198798 -99.70815182 215.2129364 C-99.81170892 233.47526128 -99.90500977 251.7376239 -100 270 C-128.05 270 -156.1 270 -185 270 C-185 181.23 -185 92.46 -185 1 C-157.94 1 -130.88 1 -103 1 C-103 16.51 -103 32.02 -103 48 C-102.01 48 -101.02 48 -100 48 C-99.896875 47.13761719 -99.79375 46.27523437 -99.6875 45.38671875 C-96.67831746 30.56307522 -84.07684207 17.30773662 -72 9 C-53.97394451 -1.82420692 -20.35159119 -10.17579559 0 0 Z " fill="#FFFFFF" transform="translate(826,110)"/>
<path d="M0 0 C0 22.11 0 44.22 0 67 C-6.93 66.01 -13.86 65.02 -21 64 C-25.50788338 63.72761293 -29.82262435 63.51626476 -34.3125 63.5625 C-35.40933105 63.57152344 -36.50616211 63.58054687 -37.63623047 63.58984375 C-53.89176901 63.9348397 -72.49490601 68.61091393 -84.55859375 80.328125 C-93.39576235 90.57828262 -99.0837102 102.05717011 -99.15821838 115.7134552 C-99.16315636 116.37517925 -99.16809434 117.03690331 -99.17318195 117.71867961 C-99.18849644 119.92809192 -99.19690107 122.13747531 -99.20532227 124.34692383 C-99.21490555 125.93385063 -99.2249159 127.52077491 -99.23532104 129.10769653 C-99.26232735 133.41096602 -99.28336003 137.71424642 -99.30332303 142.01755357 C-99.32520897 146.51657994 -99.35258489 151.01557281 -99.37937927 155.51457214 C-99.4292709 164.03192743 -99.47422282 172.54930134 -99.51740164 181.06669301 C-99.57604222 192.57776256 -99.64231013 204.08878804 -99.70815182 215.59981823 C-99.81167128 233.73318244 -99.90499715 251.86658454 -100 270 C-128.05 270 -156.1 270 -185 270 C-185 181.23 -185 92.46 -185 1 C-157.94 1 -130.88 1 -103 1 C-103 16.51 -103 32.02 -103 48 C-102.01 48 -101.02 48 -100 48 C-99.896875 47.31164062 -99.79375 46.62328125 -99.6875 45.9140625 C-96.09668146 30.69388844 -84.56218672 17.64160829 -72 9 C-53.97394451 -1.82420692 -20.35159119 -10.17579559 0 0 Z " fill="#FFFFFF" transform="translate(1824,110)"/>
<path d="M0 0 C28.05 0 56.1 0 85 0 C85 88.77 85 177.54 85 269 C56.95 269 28.9 269 0 269 C0 180.23 0 91.46 0 0 Z " fill="#FFFFFF" transform="translate(1064,111)"/>
<path d="M0 0 C17.16 0 34.32 0 52 0 C52 13.86 52 27.72 52 42 C66.52 37.71 81.04 33.42 96 29 C99.58581195 37.60594868 102.9672019 46.1595415 106.0769043 54.93017578 C106.82231575 57.02761964 107.57798547 59.12119609 108.33398438 61.21484375 C108.81312312 62.55967399 109.29166164 63.90471827 109.76953125 65.25 C110.19854736 66.45140625 110.62756348 67.6528125 111.06958008 68.890625 C112 72 112 72 112 76 C98.14 80.29 84.28 84.58 70 89 C77.15878759 98.11815645 77.15878759 98.11815645 84.33984375 107.21875 C84.78263672 107.77820313 85.22542969 108.33765625 85.68164062 108.9140625 C86.54462829 110.00386963 87.40930578 111.09234011 88.27539062 112.1796875 C91.04315241 115.68359989 93.57159926 119.25879793 96 123 C87.98755025 128.94417835 79.8097881 134.60408597 71.51757812 140.1484375 C69.47081519 141.51955072 67.4308134 142.90037892 65.390625 144.28125 C64.08373634 145.15685181 62.77645931 146.0318743 61.46875 146.90625 C60.86252808 147.31862915 60.25630615 147.7310083 59.63171387 148.15588379 C55.34275359 151 55.34275359 151 52 151 C50.65649414 149.67749023 50.65649414 149.67749023 49.28515625 147.80859375 C48.76928955 147.11757568 48.25342285 146.42655762 47.72192383 145.71459961 C47.17431396 144.96315674 46.6267041 144.21171387 46.0625 143.4375 C44.90235382 141.88443562 43.7408645 140.33237378 42.578125 138.78125 C41.98708984 137.98847656 41.39605469 137.19570312 40.78710938 136.37890625 C38.01536057 132.68929965 35.17746263 129.05498399 32.3125 125.4375 C31.8079126 124.789021 31.3033252 124.14054199 30.78344727 123.47241211 C29.56929696 121.94308784 28.29052958 120.46544433 27 119 C26.34 119 25.68 119 25 119 C23.68524874 120.36485737 23.68524874 120.36485737 22.3828125 122.19140625 C21.86356201 122.88242432 21.34431152 123.57344238 20.80932617 124.28540039 C19.97558472 125.4125647 19.97558472 125.4125647 19.125 126.5625 C17.95850233 128.11568926 16.7904985 129.66774832 15.62109375 131.21875 C15.02409668 132.01152344 14.42709961 132.80429688 13.81201172 133.62109375 C10.99719898 137.31653101 8.09929702 140.94327487 5.1875 144.5625 C4.66623535 145.210979 4.1449707 145.85945801 3.60791016 146.52758789 C2.40684275 148.01965654 1.20368057 149.51003865 0 151 C-5.12886936 149.30086537 -9.34174599 146.30636025 -13.80078125 143.3359375 C-14.63715622 142.78386627 -15.47353119 142.23179504 -16.33525085 141.66299438 C-18.99715063 139.90454601 -21.65485669 138.13987318 -24.3125 136.375 C-26.12016939 135.1792742 -27.92810909 133.98395695 -29.73632812 132.7890625 C-34.1606958 129.86410257 -38.58163986 126.93402578 -43 124 C-42.29069768 120.86504296 -41.48749778 119.04057103 -39.41015625 116.56640625 C-38.87753174 115.92340576 -38.34490723 115.28040527 -37.79614258 114.61791992 C-37.22404053 113.93963135 -36.65193848 113.26134277 -36.0625 112.5625 C-34.87884016 111.13394502 -33.69656664 109.70424034 -32.515625 108.2734375 C-31.92458984 107.55897461 -31.33355469 106.84451172 -30.72460938 106.10839844 C-28.19347514 103.01399367 -25.74302156 99.86122755 -23.3125 96.6875 C-22.52488281 95.66011719 -21.73726562 94.63273437 -20.92578125 93.57421875 C-19.56441265 91.75445829 -18.26062897 89.89094346 -17 88 C-18.29679687 87.77570313 -19.59359375 87.55140625 -20.9296875 87.3203125 C-28.81793735 85.74266253 -36.44775754 83.24649557 -44.125 80.875 C-45.66913549 80.40190179 -47.2134054 79.92924205 -48.7578125 79.45703125 C-52.50677661 78.30973512 -56.25387362 77.15652652 -60 76 C-58.78099682 69.91296858 -57.1557626 64.14599116 -55.03125 58.31640625 C-54.60978699 57.14403664 -54.60978699 57.14403664 -54.17980957 55.94798279 C-53.5908528 54.31435567 -52.99914939 52.68171632 -52.40478516 51.05004883 C-51.49450421 48.54739029 -50.59637389 46.04059284 -49.69921875 43.53320312 C-49.12311389 41.93984436 -48.54631599 40.34673596 -47.96875 38.75390625 C-47.70098755 38.00500626 -47.4332251 37.25610626 -47.15734863 36.48451233 C-45.22994211 31.22994211 -45.22994211 31.22994211 -43 29 C-21.715 35.435 -21.715 35.435 0 42 C0 28.14 0 14.28 0 0 Z " fill="#E8FF20" transform="translate(2654,14)"/>
<path d="M0 0 C1.2689209 -0.03220139 2.5378418 -0.06440277 3.84521484 -0.09757996 C8.90837072 -0.1996345 13.97193116 -0.27450512 19.03582764 -0.32803631 C22.87493195 -0.36890773 26.71146608 -0.42900813 30.54931641 -0.53710938 C34.26721884 -0.64146581 37.9828366 -0.69553499 41.70211792 -0.71549416 C43.11203123 -0.73132823 44.52187044 -0.76433791 45.93093872 -0.81564903 C51.98242078 -1.02531899 56.94224312 -1.18156065 61.98205566 2.44088745 C64.48683533 4.94352173 66.71948272 7.53820406 68.96484375 10.2722168 C70.30232721 11.50031696 71.66221905 12.70526455 73.05859375 13.8659668 C78.19794781 18.2726017 82.86904411 23.12913484 87.609375 27.95581055 C90.96812499 31.3514024 94.34336799 34.65639448 97.96484375 37.7722168 C103.13045119 42.21656932 107.83776668 47.09728768 112.609375 51.95581055 C116.6411505 56.03181028 120.75971309 59.91406993 125.10351562 63.65551758 C127.81224333 66.00824513 130.39374188 68.45646345 132.96484375 70.9597168 C133.91359375 71.87108398 134.86234375 72.78245117 135.83984375 73.72143555 C137.96484375 76.2722168 137.96484375 76.2722168 137.96484375 80.2722168 C128.70697944 80.64547469 119.45175873 80.92844426 110.18797207 81.10121155 C105.88438421 81.18420563 101.58599474 81.29639299 97.28540039 81.47924805 C67.20835044 82.72475187 67.20835044 82.72475187 59.53710938 76.91625977 C56.24741072 73.74486205 53.73237511 70.28401755 51.36300659 66.39155579 C48.89761138 62.65450311 45.71381253 59.58302425 42.58984375 56.3972168 C41.44065833 55.17248893 40.29433485 53.94506196 39.15234375 52.71362305 C38.61480469 52.13499512 38.07726563 51.55636719 37.5234375 50.96020508 C33.96144729 47.10249827 30.45432368 43.19557386 26.96484375 39.2722168 C23.63683565 40.38155283 22.91698527 41.22010991 20.73046875 43.8503418 C17.18116835 48.03278077 13.48280769 52.03697502 9.71484375 56.0222168 C4.16975593 61.90882738 -1.32531048 67.83558152 -6.765625 73.8190918 C-7.51457031 74.62862305 -8.26351562 75.4381543 -9.03515625 76.2722168 C-9.59438782 76.97344666 -10.15361938 77.67467651 -10.72979736 78.39715576 C-13.94056284 81.00862822 -16.08451695 80.754635 -20.19042969 80.72631836 C-20.90302444 80.72690247 -21.6156192 80.72748657 -22.34980774 80.72808838 C-24.69854935 80.72530789 -27.04601215 80.69422002 -29.39453125 80.6628418 C-31.0254853 80.65537922 -32.65644832 80.64968637 -34.28741455 80.64569092 C-38.57514302 80.63043572 -42.86232744 80.59115534 -47.14984131 80.546875 C-51.52690268 80.50591957 -55.90405216 80.48767935 -60.28125 80.4675293 C-68.86613477 80.42466057 -77.45057779 80.35641115 -86.03515625 80.2722168 C-85.33381539 76.12889771 -84.55684903 74.30637711 -81.47265625 71.3972168 C-80.74046875 70.69983398 -80.00828125 70.00245117 -79.25390625 69.28393555 C-77.35161103 67.55914322 -75.42596383 65.87602524 -73.47265625 64.2097168 C-69.27560356 60.61105578 -65.42252983 56.69762265 -61.53515625 52.7722168 C-57.23329271 48.42855208 -52.93207698 44.21172899 -48.25390625 40.2722168 C-44.88503564 37.23548836 -41.72605966 33.99409986 -38.53515625 30.7722168 C-30.68454649 22.84538753 -30.68454649 22.84538753 -27.03515625 19.7722168 C-24.34546311 17.46306802 -21.78773276 15.07937703 -19.29296875 12.5612793 C-18.61492188 11.88000977 -17.936875 11.19874023 -17.23828125 10.49682617 C-15.86839289 9.11277544 -14.50113809 7.7261124 -13.13671875 6.33666992 C-12.193125 5.38050781 -12.193125 5.38050781 -11.23046875 4.4050293 C-10.66344238 3.82640137 -10.09641602 3.24777344 -9.51220703 2.65161133 C-6.52656564 -0.13663228 -3.97094826 0.09905592 0 0 Z " fill="#FFFFFF" transform="translate(2400.03515625,-0.272216796875)"/>
<path d="M0 0 C7.36048942 7.59241198 11.53103951 15.08283281 12.25 25.6875 C12.06187755 35.69561458 7.68375517 43.94190962 0.99609375 51.1640625 C-10.36226876 62.01444815 -23.80723308 64.62012668 -38.97265625 64.30859375 C-52.04058903 63.71937545 -63.41938075 58.10494556 -72.4375 48.6875 C-79.49472617 40.0507304 -81.36188959 30.91647491 -80.31347656 19.94238281 C-78.69623163 9.92150998 -71.79994902 2.61275263 -64.16796875 -3.45703125 C-45.36348259 -16.56078897 -17.3722341 -14.21118995 0 0 Z " fill="#FFFFFF" transform="translate(1141,13)"/>
</svg>
