<svg width="354" height="79" viewBox="0 0 354 79" fill="none" xmlns="http://www.w3.org/2000/svg">
<path d="M35.0836 15.7996C33.8835 15.7996 32.9537 16.849 33.0981 18.0403L33.2113 18.9735C33.333 19.9776 34.1853 20.7328 35.1967 20.7328H42.9612C44.166 20.7328 45.0973 21.7902 44.9451 22.9854L43.9756 30.5992H26.1819L25.0132 20.7328H25.0271L24.4289 15.7996L22.8847 2.76471C22.7655 1.7582 21.9122 1 20.8986 1H3.40967C2.15747 1 1.21324 2.13763 1.44389 3.36841L1.61878 4.3016C1.79608 5.24763 2.62206 5.9332 3.58456 5.9332H18.2008L19.3696 15.7996H7.32606C6.11182 15.7996 5.17772 16.8727 5.34516 18.0754L11.2767 60.6787C11.4302 61.871 12.0212 62.9675 12.939 63.7629C13.8568 64.5584 15.0384 64.9982 16.2627 65H39.4662C40.6906 64.9983 41.8724 64.5586 42.7903 63.7631C43.7082 62.9677 44.2993 61.8711 44.4529 60.6787L50.595 18.085C50.7689 16.8794 49.8336 15.7996 48.6155 15.7996H35.0836ZM11.0077 22.9854C10.8556 21.7902 11.7869 20.7328 12.9917 20.7328H19.9539L21.1227 30.5992H11.9773L11.0077 22.9854ZM40.1356 55.8478C39.7513 58.2775 37.6569 60.0668 35.1969 60.0668H20.5725C18.0958 60.0668 15.9923 58.2536 15.6271 55.804L12.6054 35.5324H21.707L23.539 48.4245L28.8455 48.9671L26.7661 35.5324H43.3481L40.1356 55.8478Z" fill="white"/>
<path d="M43.9756 30.5992L44.9451 22.9854C45.0973 21.7902 44.166 20.7328 42.9612 20.7328H35.1967C34.1853 20.7328 33.333 19.9776 33.2113 18.9735L33.0981 18.0403C32.9537 16.849 33.8835 15.7996 35.0836 15.7996H48.6155C49.8337 15.7996 50.7689 16.8794 50.595 18.085L44.4529 60.6787C44.2993 61.8711 43.7082 62.9677 42.7903 63.7631C41.8724 64.5586 40.6906 64.9983 39.4662 65H16.2627C15.0384 64.9982 13.8568 64.5584 12.939 63.7629C12.0212 62.9675 11.4302 61.871 11.2767 60.6787L5.34516 18.0754C5.17772 16.8727 6.11182 15.7996 7.32606 15.7996H19.3696L18.2008 5.9332H3.58456C2.62206 5.9332 1.79608 5.24763 1.61878 4.3016L1.44389 3.36841C1.21324 2.13763 2.15747 1 3.40967 1H20.8986C21.9122 1 22.7655 1.7582 22.8847 2.76471L24.4289 15.7996L25.0271 20.7328H25.0132L26.1819 30.5992H43.9756ZM43.9756 30.5992L43.3481 35.5324M11.9773 30.5992H21.1227L19.9539 20.7328H12.9917C11.7869 20.7328 10.8556 21.7902 11.0077 22.9854L11.9773 30.5992ZM11.9773 30.5992L12.6054 35.5324M12.6054 35.5324L15.6271 55.804C15.9923 58.2536 18.0958 60.0668 20.5725 60.0668H35.1969C37.6569 60.0668 39.7513 58.2775 40.1356 55.8478L43.3481 35.5324M12.6054 35.5324H21.707L23.539 48.4245L28.8455 48.9671L26.7661 35.5324H43.3481" stroke="white" stroke-width="2"/>
<path d="M77.814 66.441C75.084 66.441 72.585 65.811 70.317 64.551C68.091 63.291 66.306 61.401 64.962 58.881C63.66 56.319 63.009 53.085 63.009 49.179C63.009 45.231 63.639 41.997 64.899 39.477C66.201 36.957 67.965 35.088 70.191 33.87C72.417 32.61 74.958 31.98 77.814 31.98C81.132 31.98 84.051 32.694 86.571 34.122C89.133 35.55 91.149 37.545 92.619 40.107C94.131 42.669 94.887 45.693 94.887 49.179C94.887 52.665 94.131 55.71 92.619 58.314C91.149 60.876 89.133 62.871 86.571 64.299C84.051 65.727 81.132 66.441 77.814 66.441ZM62.166 78.222C60.5092 78.222 59.166 76.8789 59.166 75.222V32.358H66.663V40.296L66.411 49.242L67.041 58.188V75.222C67.041 76.8789 65.6979 78.222 64.041 78.222H62.166ZM76.932 59.7C78.822 59.7 80.502 59.28 81.972 58.44C83.484 57.6 84.681 56.382 85.563 54.786C86.445 53.19 86.886 51.321 86.886 49.179C86.886 46.995 86.445 45.126 85.563 43.572C84.681 41.976 83.484 40.758 81.972 39.918C80.502 39.078 78.822 38.658 76.932 38.658C75.042 38.658 73.341 39.078 71.829 39.918C70.317 40.758 69.12 41.976 68.238 43.572C67.356 45.126 66.915 46.995 66.915 49.179C66.915 51.321 67.356 53.19 68.238 54.786C69.12 56.382 70.317 57.6 71.829 58.44C73.341 59.28 75.042 59.7 76.932 59.7Z" fill="white"/>
<path d="M120.652 66V59.196L120.211 57.747V45.84C120.211 43.53 119.518 41.745 118.132 40.485C116.746 39.183 114.646 38.532 111.832 38.532C109.942 38.532 108.073 38.826 106.225 39.414C104.419 40.002 102.886 40.821 101.626 41.871L98.5388 36.138C100.345 34.752 102.487 33.723 104.965 33.051C107.485 32.337 110.089 31.98 112.777 31.98C117.649 31.98 121.408 33.156 124.054 35.508C126.742 37.818 128.086 41.409 128.086 46.281V66H120.652ZM110.068 66.441C107.548 66.441 105.343 66.021 103.453 65.181C101.563 64.299 100.093 63.102 99.0428 61.59C98.0348 60.036 97.5308 58.293 97.5308 56.361C97.5308 54.471 97.9718 52.77 98.8538 51.258C99.7778 49.746 101.269 48.549 103.327 47.667C105.385 46.785 108.115 46.344 111.517 46.344H121.282V51.573H112.084C109.396 51.573 107.59 52.014 106.666 52.896C105.742 53.736 105.28 54.786 105.28 56.046C105.28 57.474 105.847 58.608 106.981 59.448C108.115 60.288 109.69 60.708 111.706 60.708C113.638 60.708 115.36 60.267 116.872 59.385C118.426 58.503 119.539 57.201 120.211 55.479L121.534 60.204C120.778 62.178 119.413 63.711 117.439 64.803C115.507 65.895 113.05 66.441 110.068 66.441Z" fill="white"/>
<path d="M136.192 66V32.358H143.689V41.619L142.807 38.91C143.815 36.642 145.39 34.92 147.532 33.744C149.716 32.568 152.425 31.98 155.659 31.98V39.477C155.323 39.393 155.008 39.351 154.714 39.351C154.42 39.309 154.126 39.288 153.832 39.288C150.85 39.288 148.477 40.17 146.713 41.934C144.949 43.656 144.067 46.239 144.067 49.683V66H136.192Z" fill="white"/>
<path d="M174.233 66.441C170.537 66.441 167.681 65.496 165.665 63.606C163.649 61.674 162.641 58.839 162.641 55.101V24.924H170.516V54.912C170.516 56.508 170.915 57.747 171.713 58.629C172.553 59.511 173.708 59.952 175.178 59.952C176.942 59.952 178.412 59.49 179.588 58.566L181.793 64.173C180.869 64.929 179.735 65.496 178.391 65.874C177.047 66.252 175.661 66.441 174.233 66.441ZM157.097 38.91V32.61H179.525V38.91H157.097Z" fill="white"/>
<path d="M186.271 66V32.358H194.146V66H186.271ZM190.24 26.814C188.77 26.814 187.552 26.352 186.586 25.428C185.662 24.504 185.2 23.391 185.2 22.089C185.2 20.745 185.662 19.632 186.586 18.75C187.552 17.826 188.77 17.364 190.24 17.364C191.71 17.364 192.907 17.805 193.831 18.687C194.797 19.527 195.28 20.598 195.28 21.9C195.28 23.286 194.818 24.462 193.894 25.428C192.97 26.352 191.752 26.814 190.24 26.814Z" fill="white"/>
<path d="M216.72 66.441C213.864 66.441 211.344 65.916 209.16 64.866C206.976 63.774 205.275 62.136 204.057 59.952C202.839 57.726 202.23 54.933 202.23 51.573V32.358H210.105V50.502C210.105 53.526 210.777 55.794 212.121 57.306C213.507 58.776 215.46 59.511 217.98 59.511C219.828 59.511 221.424 59.133 222.768 58.377C224.154 57.621 225.225 56.487 225.981 54.975C226.779 53.463 227.178 51.594 227.178 49.368V32.358H235.053V66H227.556V56.928L228.879 59.7C227.745 61.884 226.086 63.564 223.902 64.74C221.718 65.874 219.324 66.441 216.72 66.441Z" fill="white"/>
<path d="M246.364 66C244.707 66 243.364 64.6569 243.364 63V32.358H250.861V41.619L249.979 38.91C250.987 36.642 252.562 34.92 254.704 33.744C256.888 32.568 259.597 31.98 262.831 31.98V39.477C262.495 39.393 262.18 39.351 261.886 39.351C261.592 39.309 261.298 39.288 261.004 39.288C258.022 39.288 255.649 40.17 253.885 41.934C252.121 43.656 251.239 46.239 251.239 49.683V63C251.239 64.6569 249.896 66 248.239 66H246.364Z" fill="white"/>
<path d="M282.324 66.441C278.88 66.441 275.814 65.706 273.126 64.236C270.438 62.724 268.317 60.666 266.763 58.062C265.209 55.458 264.432 52.497 264.432 49.179C264.432 45.819 265.209 42.858 266.763 40.296C268.317 37.692 270.438 35.655 273.126 34.185C275.814 32.715 278.88 31.98 282.324 31.98C285.81 31.98 288.897 32.715 291.585 34.185C294.315 35.655 296.436 37.671 297.948 40.233C299.502 42.795 300.279 45.777 300.279 49.179C300.279 52.497 299.502 55.458 297.948 58.062C296.436 60.666 294.315 62.724 291.585 64.236C288.897 65.706 285.81 66.441 282.324 66.441ZM282.324 59.7C284.256 59.7 285.978 59.28 287.49 58.44C289.002 57.6 290.178 56.382 291.018 54.786C291.9 53.19 292.341 51.321 292.341 49.179C292.341 46.995 291.9 45.126 291.018 43.572C290.178 41.976 289.002 40.758 287.49 39.918C285.978 39.078 284.277 38.658 282.387 38.658C280.455 38.658 278.733 39.078 277.221 39.918C275.751 40.758 274.575 41.976 273.693 43.572C272.811 45.126 272.37 46.995 272.37 49.179C272.37 51.321 272.811 53.19 273.693 54.786C274.575 56.382 275.751 57.6 277.221 58.44C278.733 59.28 280.434 59.7 282.324 59.7Z" fill="white"/>
<path d="M305.81 66V19.254H313.685V66H305.81Z" fill="white"/>
<path d="M337.833 66.441C334.095 66.441 330.819 65.706 328.005 64.236C325.233 62.724 323.07 60.666 321.517 58.062C320.005 55.458 319.249 52.497 319.249 49.179C319.249 45.819 319.984 42.858 321.454 40.296C322.966 37.692 325.023 35.655 327.628 34.185C330.273 32.715 333.277 31.98 336.637 31.98C339.913 31.98 342.831 32.694 345.393 34.122C347.956 35.55 349.971 37.566 351.441 40.17C352.911 42.774 353.647 45.84 353.647 49.368C353.647 49.704 353.625 50.082 353.583 50.502C353.583 50.922 353.562 51.321 353.521 51.699H325.486V46.47H349.363L346.276 48.108C346.318 46.176 345.919 44.475 345.079 43.005C344.239 41.535 343.083 40.38 341.613 39.54C340.185 38.7 338.527 38.28 336.637 38.28C334.704 38.28 333.004 38.7 331.534 39.54C330.105 40.38 328.971 41.556 328.132 43.068C327.333 44.538 326.935 46.281 326.935 48.297V49.557C326.935 51.573 327.396 53.358 328.32 54.912C329.245 56.466 330.547 57.663 332.227 58.503C333.906 59.343 335.839 59.763 338.023 59.763C339.913 59.763 341.614 59.469 343.126 58.881C344.638 58.293 345.982 57.369 347.158 56.109L351.379 60.96C349.867 62.724 347.956 64.089 345.646 65.055C343.378 65.979 340.773 66.441 337.833 66.441ZM330.037 27.759C327.942 27.759 326.881 25.2369 328.346 23.7393L331.68 20.3311C332.432 19.5617 333.463 19.128 334.539 19.128H338.356C339.432 19.128 340.463 19.5617 341.215 20.3311L344.549 23.7393C346.014 25.2369 344.953 27.759 342.858 27.759C342.298 27.759 341.757 27.5609 341.33 27.1998L337.708 24.1365L333.424 20.514H339.471L335.188 24.1365L331.565 27.1998C331.138 27.5609 330.597 27.759 330.037 27.759Z" fill="white"/>
</svg>
